<svg xmlns="http://www.w3.org/2000/svg" viewBox="0 0 96 96" role="img" aria-label="TruthShield logo">
  <rect width="96" height="96" rx="22" fill="#09090b"/>
  <path d="M48 10 77 21v23c0 19.5-10.8 33.7-29 42-18.2-8.3-29-22.5-29-42V21z" fill="#101827" stroke="#67e8f9" stroke-width="4.6" stroke-linejoin="round"/>
  <path d="M48 23v23" stroke="#67e8f9" stroke-opacity=".26" stroke-width="3" stroke-linecap="round"/>
  <path d="M35 38 48 46 62 34" fill="none" stroke="#67e8f9" stroke-opacity=".68" stroke-width="4" stroke-linecap="round" stroke-linejoin="round"/>
  <path d="M32 58 48 46 65 60" fill="none" stroke="#2dd4bf" stroke-width="4.6" stroke-linecap="round" stroke-linejoin="round"/>
  <circle cx="48" cy="46" r="7.6" fill="#e4faff" stroke="#09090b" stroke-width="3"/>
  <circle cx="35" cy="38" r="5.5" fill="#67e8f9" stroke="#09090b" stroke-width="2.5"/>
  <circle cx="62" cy="34" r="5.5" fill="#67e8f9" stroke="#09090b" stroke-width="2.5"/>
  <circle cx="32" cy="58" r="5.5" fill="#2dd4bf" stroke="#09090b" stroke-width="2.5"/>
  <circle cx="65" cy="60" r="5.5" fill="#2dd4bf" stroke="#09090b" stroke-width="2.5"/>
  <path d="M27 70c5.3 6.4 12.3 11.6 21 16 8.7-4.4 15.7-9.6 21-16" fill="none" stroke="#e4e4e7" stroke-opacity=".14" stroke-width="2"/>
</svg>
