<svg xmlns="http://www.w3.org/2000/svg" viewBox="0 0 96 96" role="img" aria-label="TruthShield logo">
  <rect width="96" height="96" rx="24" fill="#09090b"/>
  <path d="M48 11.5 75 22.5v20.8c0 18.5-9.8 32-27 40.9-17.2-8.9-27-22.4-27-40.9V22.5z" fill="#67e8f9"/>
  <path d="M48 17.2 70.3 26.3v17.1c0 15-7.8 26.2-22.3 34.4-14.5-8.2-22.3-19.4-22.3-34.4V26.3z" fill="#0f172a"/>
  <path d="M33 38.5 48 48 64 35.5" fill="none" stroke="#67e8f9" stroke-opacity=".78" stroke-width="3.2" stroke-linecap="round" stroke-linejoin="round"/>
  <path d="M31 61 48 48 66 62" fill="none" stroke="#2dd4bf" stroke-width="3.8" stroke-linecap="round" stroke-linejoin="round"/>
  <circle cx="48" cy="48" r="6.4" fill="#ecfeff"/>
  <circle cx="48" cy="48" r="9.2" fill="none" stroke="#67e8f9" stroke-opacity=".2" stroke-width="1.4"/>
  <circle cx="33" cy="38.5" r="4.6" fill="#67e8f9"/>
  <circle cx="64" cy="35.5" r="4.6" fill="#67e8f9"/>
  <circle cx="31" cy="61" r="4.9" fill="#2dd4bf"/>
  <circle cx="66" cy="62" r="4.9" fill="#2dd4bf"/>
  <path d="M48 24v24" stroke="#67e8f9" stroke-opacity=".25" stroke-width="2.6" stroke-linecap="round"/>
  <path d="M28 70c5.1 5.7 11.7 10.4 20 14.2 8.3-3.8 14.9-8.5 20-14.2" fill="none" stroke="#e4e4e7" stroke-opacity=".13" stroke-width="1.8"/>
</svg>
